<svg xmlns="http://www.w3.org/2000/svg" viewBox="0 0 387.72 256.46">
  <defs>
    <style>
      .a { fill: #008441; } .b { fill: #46aa6f; } .c { fill: #56c181; }
    </style>
  </defs>
  <path class="a" d="M45.74 0L0 56.83l6.73 8.75s42.71 27.89 49.09 28.89l.66-7.19-8.5-3.27 2.13-4.42L47 76.65l.16-5.4s-2.94 1-.65-7a54.6 54.6 0 0 0 2.29-13.57l-3.44-5.21 6.06-8.18s-3.44-2.62-2.78-3.93 3.1-7 3.1-7l-5.72-3.27 6.38-10S45.45 7.38 45.74 0z"/>
  <path class="a" d="M142.83 77.47l-19.46-6.22-2.46-8.17h-9l-9.65-7V52.8S89.68 40.87 89.03 39.07 93.28 25 93.28 25s-5.89 3.11-6.87.66-2.94-.66-5.07-1.64-1-9.32-1-9.32-1.47 6.38-5.23 3.27-4.09 2.13-6.54-.16-3.6-.49-5.4 1.47-7.52-5.23-7.52-5.23l-3.44-4.42-.46 1a20 20 0 0 0 2.1 2.09l-6.38 10 5.72 3.27s-2.45 5.72-3.1 7 2.78 3.92 2.78 3.92l-6 8.18 3.43 5.23a54.6 54.6 0 0 1-2.29 13.57c-2.29 8 .66 7 .66 7l-.17 5.39 3.11 3-2.13 4.41 8.51 3.27-.63 6.8c30.24 17.35 85.33 23.62 85.33 23.62l2.29-36.31z"/>
  <path class="a" d="M207.07 42.81l2.64-2.73-3.39-3.11-4.71-2.36-2.64 1.41 3.29 3.11-.28 1.79-2.16.85-.95 13.38-2.63 2.32-2.55-.09-3.39-5.18-.66-9.52-2.35-.66-1.13 6.88-2.45-.66-1.7-6.59-2-4-4.3 1.31-.95 3.51 2.82 4.52-3.29 1.79-.38 3.21-3.2.47.28 3.67 1.51 3.86-2.74 2.92-3.39-.67-.66-5.45-12.34-2.36-3.11 1.61-3.11-.57-8.57-7.25-5.46 2.07 1.32 9.89-5 1.13-2.45-.94-.84-4.62 1.6-1.22-2.83-3.86-10.08-.76-6.22-3.11v-3.9l3.77-2.73-2-2.54-3.67-.76-7.63-7.06v-4.24l-5.18-2.83-.62 1.66c.9-.37 1.54-.71 1.54-.71s-4.9 12.27-4.25 14.06 13.27 13.72 13.27 13.72v3.27l9.65 7h9l2.45 8.18 19.46 6.21 2.13 3.6-2.28 36.14 2.28.16h26.34v-3.44l2-3.08s.66-8.57 2.2-9a16.52 16.52 0 0 0 3.73-2l.88-5.39h4.4v-4.5l-10.11-4 .22-3.73 5.05 3.07 6.38-.66.71-4.31 6 .76 3.52-6.71-6.2-1.34-3.44-3.27h-4.87l.09-2.86h7.21l2.6 3 4.11.76 2.51-4.7-2.93-2 .33-2.85 3.61-.76 4.87-5 3.69 3.61 4.07-5.16zM171.51 119l-26.6 1.05-5.32 87.77s23.61 1.65 33.1-.72v-30s21.3-26.71 24.08-33.39l-4.73-3.62-7.79 3.9-3.34-1.67.71-8.37-2.24-2.83a1.34 1.34 0 0 0-2.34.46l-.53 1.89-2.94-.09-.25-3.69-2-.83zM25.39 180.1s35.54 14.65 43.5 15.47l-1.52-3.28 3-6.79-12.65-21.81-.23-7-5.5-7 16.74-46.95S33.4 86.53 17.01 73.53L5.64 66.26v7.62l2.23.46 4.45-2.22 3.19 2.58-.23 7.38.7 23.3 3 6.21-1.53 8-6.79 8.66 1 2.7 3.17-1.29.93 2.46-2.22 5.15.47 3 4.5 4.94-.94 6.64h-4.9l.47 2.38 7.73 6.44 2.34 3.39.94 6.56 3.28 4.8zM9.04 159.03l5.03 5.85.59 6.56.94 1.29-.82 1.52h-2.46v-2.69l-1.76-2.34-1.52-2.58.82-3.28-2.81-3.4 1.99-.93M16.65 175.31l-1.05 1.4h-2.7v1.99l3.75 1.99.94 2h1.64l.59-3.69-.59-3.69h-2.58"/>
  <path class="a" d="M173.62 177.95v27.52h2.48v4l4.64 1.19v2.07h5.94l1.19-1.28 6.28 2.77h11l4.55-8.11 12.95-.3 2.57 1.68v4.25h7.29v2.87l3.36 1.19-.6 3.56 7.47 3.54 16.66-.92 8.79 6.24-2.09 7.41h-6.24l-2.58 6.84 2.32 4.16-4.86 5.55 2.77 4.29 6.25-6.42h3l4.86-4.78-1.62-6.94 16.65-9.71 10.18-11.41-1.85-2.24-7.17 4.86-4.86-.47-3.44-2.15h-10l-5.78-4.09-10.87-33.78-5.55 3-3.47-1.16 3.47-3.24-6.48-3.93-5.63-4.16v-8.55l-3.16-4 .23-5.51h-5.55l-5.52 1.68-4.86 2.32 1.15-3.9-9.48-2.42-4.86-4.63-4.39-2.08s-10.02 20.14-25.14 35.19zM332.12 165.11l-10.25 9-5.29 8.33-.8 6.09s2.08-1.12 3 0 1-6.57 1-6.57l2.24-2.56 3.68.64 2.09-2.08v-2.09l5.28-2.08 4.17-5.93-3-.64z"/>
  <path class="a" d="M327.31 187.86l2.73 3.36v3.85l4.96 1.6 2.25 2.96h2.4v-3.44l3.21-.96 2.72-4.97-2.08-5.29-6.25-2.72v-4.17h-4.97l-5.77 3.69-3.84-.64-1.44 2.08.64 2.4 5.44 2.25M348.79 178.73s2.24 2.72 2.24 3.52 2.72-1.76 2.72-1.76l2.87.08 2.26-2.48-2.26-1.23zM363.84 183.05l-4.96 3.2-5.05.97h-3.44l.96 1.63 2.48.61 2.79-.85-1.91 4.37-4.32 2.57-3.05 4.08V206.76l4.81.64 1.68-5.44v-3.85l4.25-2.88 3.2-4.97 2.56-1.41.97-4.36-.97-1.44M363.85 128.1a1.21 1.21 0 0 0-2.09.82v6.87l3.05 5.29 1.28 4.64-2.16 3.05 2.8 3.09-.8 2.51-.32 3.69 3.36.8s4.17-6.94 5.29-7 5.13-2.61 5.13-3.25v-3.85l2.08-.64 1.44 2.08 4-1.92.8-4.49-2.09-2.08-2.56-1.12v-4.49l-.48-1.6-2.88 1.76-1.12 4 .32 2.88-2.73 1.12-3.36-2.72-3.85.16-.64 1.92-2.56-1.28-1.44-4-.48-6.25z"/>
  <path class="a" d="M258.17 135.03l-4.08 10.37-6.07 4.44v2.46l2.74 1.15.43 4.48 4.77 8.37 2.21 1.01v3.9l-2.06 1.59.28 1.59h2.31v4.05l-1.58.72-3.76-2.6 11.99 36.25 3.9 3.17h10.68l4.33 2.02h4.19l4.62-3.9 4.48-.28 1.01 2.59 12.85-3.03 4.63-5v-17.53h-1.74l-4.18 7.08-3.33-.72 4.62-8.23-.14-9.97 7.8-11.26v-6.21l21.23-13.29 3.61.29 7.36-7.51v-9.38l2.89-2.17 2.46-4.91-1.74-1.01-24.84 16.6-3.75.29-.58 3.61-6.06-.28-2.03 1.73-5.05.29.58-5.64-2.6.58-1.59 3.18-1.73-5.34-2.17-.58-2.74-4.04v-3.62l-3.61-2.45 3.61-.43.57-3.9 5.35 1.3 7.65-2.89-.72-7.08-6.64-3.03-.87-3.47-4.04-7.22-5.2-2.59.29-3.47h-6.07l-.43 6.64-3.9 1.88-.15 4.33-5.34 1.59-1.3-6.21-3.32-.14-2.6 3.32h-2.46l-.72-8.67-3.75-1.01-.58-2.6h2.74l-1.15-3.03-5.63-1.3-2.31 1.59-3.18-1.59-1.88-1.74-3.75-2.45-4.19 2.45h-12.85v2.89l2.45 1.16 2.46 7.65 5.77 4.05-.14 2.16-1.73 1.16-.87 10.11 6.79 4.91 7.55 12.77"/>
  <path class="a" d="M348.7 117.47l-1-3.79-3.08-.21v3.09l-2.58.2-.83-3.91-3.44 3.3-1.53 8.64-3.44 1.24v-3.29h-3.44v-2.73h2.87l2.77-5.81a1.11 1.11 0 0 0-1.3-1.6l-2.19.87-3.06.21-1.72.61-3.24-3.08h-3.63l-1.78-1.86-4.14.21-.58-3.3 1.91-2.26-2.86-1.85-1.53-2.27-2.48 2.47-2.49-2.47-1.82 2.39 4.19 2.25 3.25 6.27.7 3 5.28 2.68.58 6.14-6.17 2.51-3.8-1-.6.56-.37 2.69-2.91.37 2.91 2.14v3.13l2.21 3.51 1.75.51 1.39 4.64 1.28-2.76 2.1-.51-.47 4.9 4.07-.26 1.63-1.5 4.89.25.47-3.13 3-.26 16.45-11.85 3.59-2.58 1.39.88-.63 1.37 2.46-.18v-7.21z"/>
  <path class="b" d="M142.64 119.53l-4.2 88.29s-34.69-2.63-44.15-6.83l18.66-86.19s23.12 5.25 29.69 4.73z"/>
  <path class="c" d="M70.12 102.71s32.08 12.2 40.46 11.56l-19 86.72-20.36-4.73-2.37-3.16 3.42-7.88-13.4-22.33v-6.57l-5-7.1z"/>
</svg>
