<svg xmlns="http://www.w3.org/2000/svg" viewBox="0 0 331.67 366.21">
  <defs>
    <style>
      .a { fill: #b75441; } .b { fill: #aa3424; } .c { fill: #edeeee; } .d { fill: #ddd; } .e { fill: #702112; } .f { fill: #5e1912; } .g { fill: #932519; } .h { fill: #210906; } .i { fill: #e09a46; } .j { fill: #c47206; } .k { fill: #efa329; } .l { fill: #bf7e1f; } .m { fill: #f14f26; } .n { fill: #c4432a; } .o { fill: #e57e55; } .p { fill: #c66b4b; } .q { fill: #cc4; } .r { fill: #afa13c; }
    </style>
  </defs>
  <path class="a" d="M65.36 106.67l-16.41-8.18a1.78 1.78 0 0 0-2.49 2.12l5.45 17.51 6.43 20.64a2.08 2.08 0 0 0 1.07 1.25l19.35 9.65 20.14 10-6.69-21.49-6.43-20.6a2.1 2.1 0 0 0-1.07-1.25z"/>
  <path class="b" d="M66.08 121.54l33 38.34-12.8-40.8s-.18-2.2-1.42-2.67-9.89-5-9.89-5l-18.22-7z"/>
  <path class="c" d="M51.23 115.94l3.85 12.33-.36-16 11.36 9.27-4.55-12.38 13.4 2.3-26-12.9s-3.29-1.82-2.6 2 4.9 15.38 4.9 15.38z"/>
  <path class="a" d="M129.88 84.53a2.93 2.93 0 0 0-2.87-2.26H90.3a2.93 2.93 0 0 0-2.87 2.29l-13.78 60.29a3 3 0 0 0 .49 2.38l11.3 15.61a8.41 8.41 0 0 0 6.8 3.48h32.84a8.43 8.43 0 0 0 6.81-3.48l11.29-15.61a2.94 2.94 0 0 0 .49-2.38z"/>
  <path class="c" d="M124.23 95.35a2.19 2.19 0 0 0-2.11-1.76H95.19a2.19 2.19 0 0 0-2.11 1.76l-10.1 46.42a2.36 2.36 0 0 0 .35 1.83l8.29 12a6.07 6.07 0 0 0 5 2.68h24.08a6.06 6.06 0 0 0 5-2.68l8.29-12a2.36 2.36 0 0 0 .35-1.83z"/>
  <path class="d" d="M92.4 98.21l16.25 10.09 16.89-6.93-2.08-7.29-31.06 4.13"/>
  <path class="e" d="M92.47 118.39l-1.25 51.68h6.3l-1.26-51.68h-3.79M121.05 118.39l-1.26 51.68h6.3l-1.26-51.68h-3.78"/>
  <path class="f" d="M97.31 170.07h-2.74l1.99-22 .75 22M125.88 170.07h-2.74l2-22 .74 22"/>
  
  <g class="fox_com">
    <path class="a" d="M153.89 86.33l-20.24 8.1-23.8 9.52a3.77 3.77 0 0 1-2.82 0l-23.59-9.51-20-8.08a3.8 3.8 0 0 1-2.36-4.23l11.24-59a3.77 3.77 0 0 1 3.76-3.1l65.57-.38a3.78 3.78 0 0 1 3.75 3.1l10.85 59.39a3.79 3.79 0 0 1-2.36 4.19z"/>
    <path class="b" d="M156.21 82.12l-10.85-59.39a3.79 3.79 0 0 0-3.75-3.1l-33 .19v84.37a3.64 3.64 0 0 0 1.2-.26l23.8-9.52 20.28-8.14a3.79 3.79 0 0 0 2.32-4.15z"/>
    <path class="c" d="M87.93 37.11l19 67-43.67-17.67 18.28-49.57a3.36 3.36 0 0 1 6.39.24zM154.08 86.44l-20-51a3.37 3.37 0 0 0-6.39.38l-17.72 68.24"/>
    <path class="e" d="M109.69 105.39a1.35 1.35 0 0 1-2.34 0l-1.49-2.58-1.48-2.54a1.35 1.35 0 0 1 1.17-2h5.94a1.35 1.35 0 0 1 1.17 2l-1.48 2.57z"/>
    <path class="g" d="M111.49 98.21h-2.84v7.84a1.31 1.31 0 0 0 1-.66l1.49-2.58 1.48-2.57a1.35 1.35 0 0 0-1.13-2.03z"/>
    <path class="a" d="M80.43 6.42l-7.77 15.73h24.51L89.4 6.42a5 5 0 0 0-8.97 0z"/>
    <path class="b" d="M128.34 6.42l-7.78 15.73h24.52L137.3 6.42a5 5 0 0 0-8.96 0z"/>
    <path class="e" d="M88.24 4.08L86.8 1.17a2.1 2.1 0 0 0-3.77 0l-1.44 2.91zM136.15 4.08l-1.44-2.91a2.1 2.1 0 0 0-3.77 0l-1.44 2.91z"/>
    <circle class="h" cx="85.11" cy="62.5" r="3.36"/>
    <circle class="h" cx="133.02" cy="62.5" r="3.36"/>
  </g>

  <g class="fox_com">
    <path class="i" d="M283.19 124.03l8.18-16.42a1.78 1.78 0 0 0-2.12-2.49l-17.51 5.46-20.66 6.43a2.07 2.07 0 0 0-1.25 1.07l-9.65 19.34-10 20.15 21.49-6.7 20.64-6.43a2.08 2.08 0 0 0 1.25-1.07z"/>
    <path class="j" d="M268.32 124.78l-38.34 32.94 40.81-12.81s2.19-.18 2.66-1.42 5-9.89 5-9.89l7-18.22z"/>
    <path class="c" d="M273.92 109.9l-12.31 3.83 16-.35-9.29 11.4 12.38-4.51-2.3 13.41 12.9-26s1.82-3.29-2-2.6-15.38 4.82-15.38 4.82z"/>
    <g>
      <path class="j" d="M244.77 84.53a3 3 0 0 0-2.87-2.26h-36.72a2.93 2.93 0 0 0-2.86 2.29l-13.78 60.29a2.94 2.94 0 0 0 .49 2.38l11.29 15.61a8.43 8.43 0 0 0 6.81 3.48h32.82a8.41 8.41 0 0 0 6.81-3.48l11.32-15.64a2.93 2.93 0 0 0 .48-2.38z"/>
      <path class="c" d="M239.08 95.35a2.19 2.19 0 0 0-2.11-1.76h-26.89a2.18 2.18 0 0 0-2.1 1.76l-10.12 46.42a2.4 2.4 0 0 0 .36 1.83l8.29 12a6.06 6.06 0 0 0 5 2.68h24.07a6.07 6.07 0 0 0 5-2.68l8.29-12a2.36 2.36 0 0 0 .35-1.83z"/>
      <path class="d" d="M207.28 98.21l16.26 10.09 16.88-6.93-2.07-7.29-31.07 4.13"/>
      <path class="e" d="M207.36 118.39l-1.26 51.68h6.31l-1.26-51.68h-3.79M235.94 118.39l-1.26 51.68h6.3l-1.26-51.68h-3.78"/>
      <path class="f" d="M212.19 170.07h-2.74l2-22 .74 22M240.77 170.07h-2.74l1.99-22 .75 22"/>
    </g>

    <g class="fox_com">
      <path class="j" d="M268.78 86.33l-20.24 8.1-23.81 9.52a3.77 3.77 0 0 1-2.82 0l-23.58-9.51-20-8.08a3.78 3.78 0 0 1-2.3-4.22l11.23-59a3.79 3.79 0 0 1 3.7-3.07l65.57-.38a3.78 3.78 0 0 1 3.74 3.1l10.81 59.35a3.77 3.77 0 0 1-2.3 4.19z"/>
      <path class="i" d="M271.08 82.12l-10.84-59.39a3.79 3.79 0 0 0-3.74-3.1l-33 .19v84.37a3.54 3.54 0 0 0 1.2-.26l23.81-9.52 20.27-8.14a3.77 3.77 0 0 0 2.3-4.15z"/>
      <path class="c" d="M202.82 37.11l19 67-43.7-17.65 18.31-49.59a3.36 3.36 0 0 1 6.39.24zM268.92 86.44l-20-51a3.36 3.36 0 0 0-6.38.38l-17.73 68.24"/>
      <path class="e" d="M224.58 105.39a1.35 1.35 0 0 1-2.34 0l-1.49-2.58-1.48-2.54a1.35 1.35 0 0 1 1.17-2h5.94a1.35 1.35 0 0 1 1.17 2l-1.47 2.54z"/>
      <path class="g" d="M226.38 98.21h-2.85v7.84a1.33 1.33 0 0 0 1.05-.66l1.49-2.58 1.48-2.57a1.35 1.35 0 0 0-1.17-2.03z"/>
      <path class="j" d="M195.32 6.42l-7.78 15.73h24.54l-7.77-15.73a5 5 0 0 0-8.99 0z"/>
      <path class="i" d="M243.23 6.42l-7.78 15.73h24.52l-7.78-15.73a5 5 0 0 0-8.96 0z"/>
      <path class="e" d="M203.13 4.08l-1.44-2.91a2.1 2.1 0 0 0-3.77 0l-1.44 2.91zM251.08 4.08l-1.44-2.91a2.1 2.1 0 0 0-3.76 0l-1.45 2.91z"/>
      <circle class="h" cx="200" cy="62.5" r="3.36"/>
      <circle class="h" cx="247.9" cy="62.5" r="3.36"/>
    </g>
  </g>

  <g class="fox_com">
    <path class="k" d="M124.3 165.27l-16.41-8.19a1.78 1.78 0 0 0-2.49 2.12l5.45 17.51 6.44 20.64a2.11 2.11 0 0 0 1.06 1.26l19.35 9.66 20.14 10-6.69-21.49-6.43-20.64a2.1 2.1 0 0 0-1.07-1.25z"/>
    <path class="l" d="M125.08 180.16l32.93 38.34-12.8-40.8s-.18-2.2-1.42-2.67-9.89-5-9.89-5l-18.22-7z"/>
    <path class="c" d="M110.17 174.56l3.84 12.31-.35-16 11.4 9.29-4.55-12.38 13.41 2.31-26-12.91s-3.29-1.82-2.6 2 4.85 15.38 4.85 15.38z"/>
    <g>
      <path class="k" d="M188.82 143.15a2.93 2.93 0 0 0-2.86-2.29h-36.72a3 3 0 0 0-2.87 2.29l-13.78 60.29a3 3 0 0 0 .49 2.38l11.3 15.61a8.41 8.41 0 0 0 6.81 3.48h32.82a8.43 8.43 0 0 0 6.81-3.48l11.26-15.61a2.94 2.94 0 0 0 .49-2.38z"/>
      <path class="c" d="M183.17 153.97a2.19 2.19 0 0 0-2.1-1.76h-26.94a2.19 2.19 0 0 0-2.11 1.76l-10.1 46.42a2.35 2.35 0 0 0 .35 1.83l8.29 12a6.08 6.08 0 0 0 5 2.67h24.08a6.08 6.08 0 0 0 5-2.67l8.29-12a2.35 2.35 0 0 0 .35-1.83z"/>
      <path class="d" d="M151.34 156.84l16.25 10.08 16.89-6.93-2.08-7.29-31.06 4.14"/>
      <path class="e" d="M151.42 177.01l-1.26 51.68h6.3l-1.26-51.68h-3.78M179.99 177.01l-1.26 51.68h6.3l-1.26-51.68h-3.78"/>
      <path class="f" d="M156.25 228.69h-2.74l1.99-22 .75 22M184.82 228.69h-2.74l2-22 .74 22"/>
    </g>

    <g class="fox_com">
      <path class="k" d="M212.83 144.95l-20.24 8.1-23.8 9.52a3.82 3.82 0 0 1-2.82 0l-23.59-9.52-20-8.08a3.79 3.79 0 0 1-2.3-4.22l11.24-59a3.77 3.77 0 0 1 3.69-3.08l65.54-.4a3.79 3.79 0 0 1 3.75 3.1l10.85 59.39a3.79 3.79 0 0 1-2.32 4.19z"/>
      <path class="l" d="M215.15 140.74L204.3 81.35a3.79 3.79 0 0 0-3.75-3.1l-33 .19v84.37a3.59 3.59 0 0 0 1.2-.26l23.8-9.52 20.24-8.1a3.78 3.78 0 0 0 2.36-4.19z"/>
      <path class="c" d="M146.87 95.73l19 67-43.67-17.66 18.29-49.58a3.36 3.36 0 0 1 6.38.24zM212.97 145.07l-20-51a3.37 3.37 0 0 0-6.39.38l-17.72 68.24"/>
      <path class="e" d="M168.63 164.01a1.35 1.35 0 0 1-2.34 0l-1.48-2.58-1.49-2.57a1.35 1.35 0 0 1 1.17-2h5.94a1.35 1.35 0 0 1 1.18 2l-1.53 2.57z"/>
      <path class="g" d="M170.43 156.83h-2.84v7.84a1.31 1.31 0 0 0 1-.66l1.49-2.58 1.49-2.57a1.35 1.35 0 0 0-1.14-2.03z"/>
      <path class="k" d="M139.37 65.04l-7.77 15.73h24.48l-7.78-15.73a5 5 0 0 0-8.93 0z"/>
      <path class="l" d="M187.28 65.04l-7.78 15.73h24.52l-7.78-15.73a5 5 0 0 0-8.96 0z"/>
      <path class="e" d="M147.18 62.7l-1.44-2.91a2.1 2.1 0 0 0-3.77 0l-1.44 2.91zM195.08 62.7l-1.44-2.91a2.1 2.1 0 0 0-3.77 0l-1.44 2.91z"/>
      <circle class="h" cx="144.05" cy="121.12" r="3.36"/>
      <circle class="h" cx="191.96" cy="121.12" r="3.36"/>
    </g>
  </g>

  <g class="fox_com">
    <path class="m" d="M19.08 180.8l-16.41-8.18a1.77 1.77 0 0 0-2.49 2.11l5.47 17.54 6.43 20.62a2.14 2.14 0 0 0 1.07 1.25l19.35 9.64 20.14 10.05-6.69-21.49-6.43-20.64a2.12 2.12 0 0 0-1.07-1.26z"/>
    <path class="n" d="M19.86 195.67l32.93 38.34-12.8-40.81s-.18-2.19-1.42-2.67-9.89-5-9.89-5l-18.22-7.05z"/>
    <path class="c" d="M4.97 190.07l3.84 12.31-.35-16 11.4 9.3-4.55-12.41 13.41 2.3-26-12.91s-3.29-1.81-2.6 2 4.85 15.41 4.85 15.41z"/>
    <g>
      <path class="m" d="M83.62 158.65a2.93 2.93 0 0 0-2.86-2.28H44.08a3 3 0 0 0-2.87 2.28l-13.82 60.29a3 3 0 0 0 .49 2.38l11.3 15.62a8.4 8.4 0 0 0 6.81 3.47h32.82a8.42 8.42 0 0 0 6.81-3.47l11.29-15.62a2.92 2.92 0 0 0 .49-2.38z"/>
      <path class="c" d="M77.97 169.47a2.19 2.19 0 0 0-2.11-1.76H48.93a2.19 2.19 0 0 0-2.11 1.76l-10.1 46.43a2.37 2.37 0 0 0 .35 1.83l8.29 12a6.09 6.09 0 0 0 5 2.68h24.08a6.09 6.09 0 0 0 5-2.68l8.29-12a2.37 2.37 0 0 0 .35-1.83z"/>
      <path class="d" d="M46.14 172.34l16.26 10.09 16.88-6.94-2.08-7.28-31.06 4.13"/>
      <path class="e" d="M46.22 192.51l-1.26 51.69h6.3L50 192.51h-3.78M74.79 192.51l-1.26 51.69h6.3l-1.26-51.69h-3.78"/>
      <path class="f" d="M51.05 244.2h-2.74l1.99-22 .75 22M79.62 244.2h-2.74l2-22 .74 22"/>
    </g>

    <g class="fox_com">
      <path class="m" d="M107.63 160.46l-20.24 8.09-23.8 9.53a3.77 3.77 0 0 1-2.82 0l-23.59-9.53-20-8.08a3.78 3.78 0 0 1-2.3-4.21l11.2-58.99a3.77 3.77 0 0 1 3.69-3.07l65.57-.39a3.79 3.79 0 0 1 3.75 3.11l10.86 59.35a3.79 3.79 0 0 1-2.32 4.19z"/>
      <path class="n" d="M109.95 156.27L99.08 96.86a3.79 3.79 0 0 0-3.75-3.11l-33 .2v84.37a3.91 3.91 0 0 0 1.2-.26l23.8-9.52 20.24-8.1a3.79 3.79 0 0 0 2.38-4.17z"/>
      <path class="c" d="M41.67 111.27l19 67L17 160.57 35.29 111a3.35 3.35 0 0 1 6.38.27zM107.77 160.57l-20-51a3.37 3.37 0 0 0-6.39.39l-17.73 68.31"/>
      <path class="e" d="M63.43 179.51a1.35 1.35 0 0 1-2.34 0l-1.48-2.57-1.53-2.57a1.35 1.35 0 0 1 1.17-2h5.94a1.35 1.35 0 0 1 1.18 2l-1.49 2.57z"/>
      <path class="g" d="M65.23 172.34h-2.84v7.83a1.29 1.29 0 0 0 1-.66l1.49-2.57 1.49-2.57a1.35 1.35 0 0 0-1.14-2.03z"/>
      <path class="m" d="M34.17 80.55L26.4 96.27h24.52l-7.78-15.72a5 5 0 0 0-8.97 0z"/>
      <path class="n" d="M82.08 80.55L74.3 96.27h24.52l-7.74-15.72a5 5 0 0 0-9 0z"/>
      <path class="e" d="M41.98 78.21l-1.44-2.94a2.1 2.1 0 0 0-3.77 0l-1.44 2.92zM89.89 78.21l-1.44-2.94a2.1 2.1 0 0 0-3.77 0l-1.44 2.92z"/>
      <circle class="h" cx="38.85" cy="136.62" r="3.36"/>
      <circle class="h" cx="86.76" cy="136.62" r="3.36"/>
    </g>
  </g>

  <g class="fox_com">
    <path class="o" d="M312.57 181.27l16.42-8.19a1.78 1.78 0 0 1 2.49 2.12l-5.46 17.51-6.43 20.64a2.09 2.09 0 0 1-1.07 1.26l-19.34 9.66-20.1 10 6.7-21.49 6.43-20.63a2.12 2.12 0 0 1 1.07-1.26z"/>
    <path class="o" d="M311.82 196.1l-32.94 38.34 12.81-40.8s.18-2.2 1.42-2.67 9.89-5 9.89-5l18.22-7.05z"/>
    <path class="c" d="M326.7 190.5l-3.83 12.32.35-16-11.4 9.29 4.55-12.38-13.41 2.31 26-12.91s3.29-1.81 2.6 2-4.86 15.37-4.86 15.37z"/>
    <g>
      <path class="o" d="M248.08 159.09a3 3 0 0 1 2.87-2.29h36.72a3 3 0 0 1 2.87 2.29l13.77 60.29a2.93 2.93 0 0 1-.48 2.38l-11.3 15.61a8.39 8.39 0 0 1-6.81 3.48h-32.85a8.39 8.39 0 0 1-6.79-3.48l-11.3-15.61a3 3 0 0 1-.48-2.38z"/>
      <path class="c" d="M253.71 169.91a2.18 2.18 0 0 1 2.1-1.76h26.94a2.17 2.17 0 0 1 2.1 1.76l10.11 46.42a2.34 2.34 0 0 1-.36 1.84l-8.28 12a6.09 6.09 0 0 1-5 2.68h-24.08a6.07 6.07 0 0 1-5-2.68l-8.29-12a2.34 2.34 0 0 1-.36-1.84z"/>
      <path class="d" d="M285.54 172.78l-16.26 10.08-16.88-6.93 2.07-7.28 31.07 4.13"/>
      <path class="e" d="M285.46 192.95l1.26 51.69h-6.3l1.26-51.69h3.78M256.88 192.95l1.26 51.69h-6.3l1.26-51.69h3.78"/>
      <path class="f" d="M280.63 244.64h2.74l-2-22.01-.74 22.01M252.05 244.64h2.74l-1.99-22.01-.75 22.01"/>
    </g>

    <g class="fox_com">
      <path class="p" d="M224.08 160.89l20.24 8.1 23.8 9.52a3.82 3.82 0 0 0 2.82 0l23.59-9.52 20-8.08a3.8 3.8 0 0 0 2.3-4.22l-11.24-59a3.78 3.78 0 0 0-3.69-3.08l-65.58-.38a3.79 3.79 0 0 0-3.74 3.1l-10.85 59.39a3.78 3.78 0 0 0 2.35 4.17z"/>
      <path class="o" d="M221.73 156.68l10.85-59.41a3.79 3.79 0 0 1 3.74-3.1l33 .19v84.37a3.59 3.59 0 0 1-1.2-.26l-23.8-9.52-20.24-8.07a3.8 3.8 0 0 1-2.35-4.2z"/>
      <path class="c" d="M290 111.68l-19 67 43.71-17.65-18.29-49.58a3.36 3.36 0 0 0-6.42.23zM223.91 161.01l20-51a3.36 3.36 0 0 1 6.38.38l17.79 68.27"/>
      <path class="e" d="M268.24 179.95a1.36 1.36 0 0 0 2.35 0l1.48-2.57 1.49-2.58a1.35 1.35 0 0 0-1.17-2h-5.95a1.35 1.35 0 0 0-1.17 2l1.49 2.58z"/>
      <path class="g" d="M266.44 172.77h2.85v7.84a1.34 1.34 0 0 1-1-.66l-1.48-2.57-1.49-2.58a1.35 1.35 0 0 1 1.12-2.03z"/>
      <path class="p" d="M297.5 80.98l7.78 15.73h-24.52l7.78-15.73a5 5 0 0 1 8.96 0z"/>
      <path class="o" d="M249.6 80.11l7.77 15.73h-24.51l7.77-15.73a5 5 0 0 1 8.97 0z"/>
      <path class="e" d="M289.7 78.64l1.44-2.91a2.1 2.1 0 0 1 3.76 0l1.45 2.91zM241.79 78.64l1.44-2.91a2.1 2.1 0 0 1 3.77 0l1.44 2.91z"/>
      <circle class="h" cx="292.82" cy="137.06" r="3.36"/>
      <circle class="h" cx="244.92" cy="137.06" r="3.36"/>
    </g>
  </g>

  <g class="fox_com"> 
    <path class="q" d="M289.68 279.27l8.18-16.41a1.77 1.77 0 0 0-2.12-2.49l-17.51 5.45-20.64 6.45a2.1 2.1 0 0 0-1.25 1.07l-9.65 19.35-10 20.14 21.49-6.69 20.64-6.43a2.08 2.08 0 0 0 1.25-1.07z"/>
    <path class="r" d="M274.81 280.05l-38.34 32.94 40.81-12.81s2.19-.17 2.66-1.41 5-9.89 5-9.89l7-18.22z"/>
    <path class="c" d="M280.41 265.17l-12.33 3.84 16-.36-9.29 11.4 12.38-4.54-2.3 13.4 12.9-26s1.82-3.29-2-2.61-15.36 4.87-15.36 4.87z"/>
    <g>
      <path class="r" d="M251.26 239.8a3 3 0 0 0-2.87-2.28h-36.72a2.93 2.93 0 0 0-2.86 2.28l-13.73 60.29a2.92 2.92 0 0 0 .49 2.38l11.29 15.61a8.4 8.4 0 0 0 6.81 3.48h32.82a8.39 8.39 0 0 0 6.81-3.48l11.3-15.61a3 3 0 0 0 .49-2.38z"/>
      <path class="c" d="M245.61 250.62a2.19 2.19 0 0 0-2.11-1.76h-26.94a2.19 2.19 0 0 0-2.1 1.76l-10.1 46.43a2.37 2.37 0 0 0 .35 1.83l8.29 12a6.09 6.09 0 0 0 5 2.68h24.08a6.09 6.09 0 0 0 5-2.68l8.29-12a2.37 2.37 0 0 0 .35-1.83z"/>
      <path class="d" d="M213.77 253.49l16.26 10.09 16.88-6.94-2.07-7.28-31.07 4.13"/>
      <path class="e" d="M213.85 273.66l-1.26 51.69h6.31l-1.27-51.69h-3.78M242.43 273.66l-1.26 51.69h6.3l-1.26-51.69h-3.78"/>
      <path class="f" d="M218.69 325.35h-2.75l2-22 .75 22M247.26 325.35h-2.74l1.99-22 .75 22"/>
    </g>

    <g class="fox_com">
      <path class="q" d="M275.27 241.61l-20.19 8.09-23.86 9.57a3.77 3.77 0 0 1-2.82 0l-23.58-9.52-20-8.08a3.77 3.77 0 0 1-2.3-4.21l11.23-59a3.79 3.79 0 0 1 3.7-3.07l65.57-.39a3.78 3.78 0 0 1 3.74 3.11l10.85 59.39a3.77 3.77 0 0 1-2.34 4.11z"/>
      <path class="r" d="M277.58 237.4l-10.85-59.39a3.78 3.78 0 0 0-3.74-3.11l-33 .2v84.37a3.79 3.79 0 0 0 1.2-.26l23.89-9.52 20.24-8.1a3.77 3.77 0 0 0 2.26-4.19z"/>
      <path class="c" d="M209.31 192.39l19 67-43.7-17.65 18.28-49.57a3.36 3.36 0 0 1 6.42.22zM275.41 241.72l-20-51a3.36 3.36 0 0 0-6.38.39l-17.75 68.26"/>
      <path class="e" d="M231.08 260.66a1.35 1.35 0 0 1-2.34 0l-1.49-2.57-1.48-2.57a1.35 1.35 0 0 1 1.17-2h5.94a1.35 1.35 0 0 1 1.17 2l-1.48 2.57z"/>
      <path class="g" d="M232.87 253.49h-2.85v7.83a1.31 1.31 0 0 0 1.05-.66l1.49-2.57 1.48-2.57a1.35 1.35 0 0 0-1.17-2.03z"/>
      <path class="q" d="M201.81 161.7l-7.73 15.73h24.52l-7.77-15.73a5 5 0 0 0-9.02 0z"/>
      <path class="r" d="M249.72 161.46l-7.78 15.73h24.52l-7.78-15.73a5 5 0 0 0-8.96 0z"/>
      <path class="e" d="M209.62 159.36l-1.44-2.92a2.1 2.1 0 0 0-3.77 0l-1.44 2.92zM257.52 159.36l-1.44-2.92a2.1 2.1 0 0 0-3.76 0l-1.45 2.92z"/>
      <circle class="h" cx="206.49" cy="217.77" r="3.36"/>
      <circle class="h" cx="254.39" cy="217.77" r="3.36"/>
    </g>
  </g>

  <g class="fox_com">
    <path class="o" d="M59.66 262.27l-16.41-8.19a1.78 1.78 0 0 0-2.49 2.12l5.45 17.51 6.43 20.64a2.12 2.12 0 0 0 1.07 1.26l19.37 9.66 20.14 10-6.69-21.49-6.45-20.61a2.12 2.12 0 0 0-1.07-1.26z"/>
    <path class="o" d="M60.41 277.13l32.94 38.34-12.81-40.8s-.17-2.2-1.41-2.67-9.89-5-9.89-5l-18.22-7z"/>
    <path class="c" d="M45.53 271.53l3.84 12.32-.36-16 11.4 9.29-4.54-12.38 13.4 2.31-26-12.91s-3.29-1.81-2.61 2 4.87 15.37 4.87 15.37z"/>
    <g>
      <path class="o" d="M124.18 240.12a2.93 2.93 0 0 0-2.87-2.29H84.6a2.93 2.93 0 0 0-2.87 2.29l-13.78 60.29a2.94 2.94 0 0 0 .49 2.38l11.29 15.61a8.41 8.41 0 0 0 6.81 3.48h32.83a8.4 8.4 0 0 0 6.81-3.48l11.29-15.61a2.94 2.94 0 0 0 .49-2.38z"/>
      <path class="c" d="M118.53 250.94a2.19 2.19 0 0 0-2.11-1.76H89.49a2.19 2.19 0 0 0-2.11 1.76l-10.1 46.42a2.38 2.38 0 0 0 .35 1.84l8.29 12a6.08 6.08 0 0 0 5 2.67h24.07a6.08 6.08 0 0 0 5-2.67l8.29-12a2.38 2.38 0 0 0 .35-1.84z"/>
      <path class="d" d="M86.69 253.81l16.26 10.08 16.88-6.93-2.07-7.28-31.07 4.13"/>
      <path class="e" d="M86.78 273.98l-1.27 51.69h6.31l-1.26-51.69h-3.78M115.35 273.98l-1.26 51.69h6.3l-1.26-51.69h-3.78"/>
      <path class="f" d="M91.61 325.67h-2.75l2-22 .75 22M120.18 325.67h-2.74l2-22 .74 22"/>
    </g>

    <g class="fox_com">
      <path class="p" d="M148.19 241.92l-20.24 8.1-23.8 9.52a3.82 3.82 0 0 1-2.82 0l-23.59-9.52-20-8.08a3.79 3.79 0 0 1-2.3-4.22l11.23-59a3.79 3.79 0 0 1 3.7-3.08l65.57-.38a3.78 3.78 0 0 1 3.74 3.1l10.86 59.39a3.78 3.78 0 0 1-2.35 4.17z"/>
      <path class="o" d="M150.51 237.71l-10.86-59.39a3.78 3.78 0 0 0-3.74-3.1l-33 .19v84.37a3.64 3.64 0 0 0 1.2-.26l23.8-9.52 20.24-8.09a3.8 3.8 0 0 0 2.36-4.2z"/>
      <path class="c" d="M82.23 192.71l19 67-43.7-17.65 18.28-49.58a3.36 3.36 0 0 1 6.42.23zM148.33 242.04l-20-51a3.36 3.36 0 0 0-6.38.38l-17.72 68.25"/>
      <path class="e" d="M103.99 260.98a1.35 1.35 0 0 1-2.34 0l-1.49-2.57-1.48-2.58a1.35 1.35 0 0 1 1.17-2h5.94a1.35 1.35 0 0 1 1.17 2l-1.48 2.58z"/>
      <path class="g" d="M105.79 253.8h-2.84v7.84a1.31 1.31 0 0 0 1-.66l1.49-2.57 1.48-2.58a1.35 1.35 0 0 0-1.13-2.03z"/>
      <path class="p" d="M74.73 162.01l-7.77 15.73h24.51l-7.77-15.73a5 5 0 0 0-8.97 0z"/>
      <path class="o" d="M122.64 161.14l-7.78 15.73h24.52l-7.78-15.73a5 5 0 0 0-8.96 0z"/>
      <path class="e" d="M82.54 159.67l-1.46-2.91a2.1 2.1 0 0 0-3.77 0l-1.44 2.91zM130.45 159.67l-1.45-2.91a2.1 2.1 0 0 0-3.76 0l-1.44 2.91z"/>
      <circle class="h" cx="79.41" cy="218.09" r="3.36"/>
      <circle class="h" cx="127.32" cy="218.09" r="3.36"/>
    </g>
  </g>

  <g class="fox_com">
    <path class="a" d="M124.3 302.81l-16.41-8.18a1.78 1.78 0 0 0-2.49 2.12l5.45 17.52 6.44 20.64a2.09 2.09 0 0 0 1.06 1.25l19.35 9.65 20.14 10-6.69-21.49-6.43-20.64a2.12 2.12 0 0 0-1.07-1.26z"/>
    <path class="b" d="M125.08 317.68l32.93 38.34-12.8-40.81s-.18-2.19-1.42-2.66-9.89-5-9.89-5l-18.22-7z"/>
    <path class="c" d="M110.17 312.08l3.84 12.31-.35-16 11.4 9.29-4.55-12.41 13.41 2.3-26-12.91s-3.29-1.81-2.6 2 4.85 15.42 4.85 15.42z"/>
    <g>
      <path class="a" d="M188.82 280.67a2.93 2.93 0 0 0-2.86-2.29h-36.72a3 3 0 0 0-2.87 2.29l-13.78 60.28a3 3 0 0 0 .49 2.38l11.3 15.62a8.4 8.4 0 0 0 6.81 3.47h32.82a8.42 8.42 0 0 0 6.81-3.47l11.26-15.62a2.92 2.92 0 0 0 .49-2.38z"/>
      <path class="c" d="M183.17 291.49a2.2 2.2 0 0 0-2.1-1.77h-26.94a2.2 2.2 0 0 0-2.11 1.77l-10.1 46.42a2.37 2.37 0 0 0 .35 1.83l8.29 12a6.09 6.09 0 0 0 5 2.68h24.08a6.09 6.09 0 0 0 5-2.68l8.29-12a2.37 2.37 0 0 0 .35-1.83z"/>
      <path class="d" d="M151.34 294.35l16.25 10.09 16.89-6.94-2.08-7.28-31.06 4.13"/>
      <path class="e" d="M151.42 314.52l-1.26 51.69h6.3l-1.26-51.69h-3.78M179.99 314.52l-1.26 51.69h6.3l-1.26-51.69h-3.78"/>
      <path class="f" d="M156.25 366.21h-2.74l1.99-22 .75 22M184.82 366.21h-2.74l2-22 .74 22"/>
    </g>

    <g class="fox_com">
      <path class="a" d="M212.83 282.47l-20.24 8.1-23.8 9.52a3.77 3.77 0 0 1-2.82 0l-23.59-9.52-20-8.09a3.78 3.78 0 0 1-2.3-4.21l11.24-59a3.77 3.77 0 0 1 3.69-3.07l65.57-.39a3.79 3.79 0 0 1 3.75 3.11l10.82 59.35a3.79 3.79 0 0 1-2.32 4.2z"/>
      <path class="b" d="M215.15 278.27l-10.85-59.4a3.77 3.77 0 0 0-3.75-3.1l-33 .19v84.37a3.85 3.85 0 0 0 1.2-.26l23.8-9.52 20.24-8.1a3.79 3.79 0 0 0 2.36-4.18z"/>
      <path class="c" d="M146.87 233.27l19 67-43.71-17.65 18.29-49.57a3.35 3.35 0 0 1 6.42.22zM212.97 282.58l-20-51a3.37 3.37 0 0 0-6.39.38l-17.73 68.31"/>
      <path class="e" d="M168.63 301.52a1.34 1.34 0 0 1-2.34 0l-1.48-2.57-1.49-2.57a1.35 1.35 0 0 1 1.17-2h5.94a1.35 1.35 0 0 1 1.18 2l-1.53 2.57z"/>
      <path class="g" d="M170.43 294.35h-2.84v7.83a1.29 1.29 0 0 0 1-.66l1.49-2.57 1.49-2.57a1.35 1.35 0 0 0-1.14-2.03z"/>
      <path class="a" d="M139.37 202.56l-7.77 15.71h24.48l-7.78-15.73a5 5 0 0 0-8.93.02z"/>
      <path class="b" d="M187.28 202.56l-7.78 15.71h24.52l-7.78-15.73a5 5 0 0 0-8.96.02z"/>
      <path class="e" d="M147.18 200.27l-1.44-3a2.1 2.1 0 0 0-3.77 0l-1.44 3zM195.08 200.27l-1.43-3a2.1 2.1 0 0 0-3.77 0l-1.44 3z"/>
      <circle class="h" cx="144.05" cy="258.63" r="3.36"/>
      <circle class="h" cx="191.96" cy="258.63" r="3.36"/>
    </g>

  </g>
</svg>
