<svg xmlns="http://www.w3.org/2000/svg" viewBox="0 0 391.11 148.96">
  <defs>
    <style>
      .a { fill: #aadab5; } .b { fill: #80ca95; } .c { fill: #a1cfa9; } .d { fill: #5cbd7e; } .e { fill: #ede72e; } .f { fill: #b74113; } .g { fill: #c9c8c7; } .h { fill: #065472; } .i { fill: #898785; } .j { fill: #282827; } .k { fill: #736147; } .l { fill: #92d99f; } .m { fill: #78c595; } .n { fill: #9fe2a8; } .o { fill: #d8d8d8; } .p { fill: #c63a1e; } .q { fill: #772017; } .r { fill: #561411; } .s { fill: #b72f0f; } .t { fill: #512820; } .u { fill: #666; } .v { fill: #8c8c88; } .w { fill: #3d3d3b; }
    </style>
  </defs>
  <path class="a" d="M237.87 124.17a95.76 95.76 0 0 0-185.7 0z"/>
  <path class="b" d="M147.1 124.15h90.77a95.76 95.76 0 0 0-90.76-72.28z"/>
  <rect class="c" y="124.17" width="391.11" height="24.78" rx="12" ry="12"/>
  <path class="d" d="M376.18 124.17h-229v24.8h229c8.24 0 15-5.4 15-12v-.8c-.07-6.6-6.8-12-15-12z"/>
  <g>
    <circle class="e" cx="71.76" cy="113.53" r="1.31"/>
    <path class="f" d="M71.76 115.8H54.62V99.27h12.33a2.68 2.68 0 0 1 2.6 1.93l1.94 7.4z"/>
    <path class="g" d="M69.75 108.6H56.18v-7H67a1.15 1.15 0 0 1 1.13.83z"/>
    <path class="h" d="M29.1 96.76h24.75v18.87H24.78V101.1a4.33 4.33 0 0 1 4.33-4.34z"/>
    <rect class="i" x="23.06" y="115.39" width="50.7" height="2.99" rx="1.49" ry="1.49"/>
    <circle class="j" cx="33.13" cy="118.85" r="5.32"/>
    <circle class="g" cx="33.13" cy="118.85" r="3.72"/>
    <circle class="j" cx="64.43" cy="118.85" r="5.32"/>
    <circle class="g" cx="64.43" cy="118.85" r="3.72"/>
    <path class="j" d="M56.2 109.55h3.34v.84H56.2z"/>
  </g>
  <g>
    <path class="k" d="M341.26 98.16v11.05h-8.34V97h-5.4v34.67h5.4v-18.52h9.3a3 3 0 0 0 3-3v-12z"/>
    <path class="l" d="M314.13 49.17l-16.08 49.17h32.17V0l-16.1 49.17"/>
    <path class="m" d="M346.3 49.17L330.23 0v98.34h32.17l-16.1-49.17"/>
    <path class="k" d="M296.73 104.37v7.06h-5.33v-7.8h-3.46v22.16h3.46v-11.85h5.95a1.9 1.9 0 0 0 1.9-1.9v-7.68z"/>
    <path class="l" d="M279.4 73.06l-10.3 31.43h20.57V41.63L279.4 73.06"/>
    <path class="m" d="M299.95 73.06l-10.28-31.42v62.85h20.56l-10.28-31.44"/>
    <path class="k" d="M38.67 102.74v7.05h-5.33V102h-3.46v22.15h3.46v-11.87h6a1.9 1.9 0 0 0 1.9-1.9v-7.67z"/>
    <path class="l" d="M21.34 71.43l-10.28 31.42h20.56V40L21.34 71.44"/>
    <path class="m" d="M41.9 71.43L31.62 40v62.85h20.56L41.9 71.43"/>
    <path class="k" d="M59.63 113.18v3.53h-2.67v-3.9h-1.73v11.1h1.73v-5.93h3a1 1 0 0 0 .95-1v-3.8z"/>
    <path class="l" d="M50.96 97.53l-5.14 15.7H56.1v-31.4l-5.14 15.7"/>
    <path class="m" d="M61.24 97.53l-5.14-15.7v31.4h10.28l-5.14-15.7"/>
    <path class="k" d="M13.35 115.86v2.64h-2v-2.92h-1.3v8.3h1.3v-4.43h2.23a.7.7 0 0 0 .7-.7v-2.9z"/>
    <path class="l" d="M6.85 104.12L3 115.9h7.7V92.33l-3.85 11.8"/>
    <path class="m" d="M14.56 104.12l-3.86-11.8v23.58h7.7l-3.84-11.78"/>
    <g>
      <path class="k" d="M316.78 115.86v2.64h-2v-2.92h-1.3v8.3h1.3v-4.43H317a.7.7 0 0 0 .72-.7v-2.9z"/>
      <path class="l" d="M310.28 104.12l-3.86 11.78h7.7V92.33l-3.84 11.8"/>
      <path class="m" d="M318 104.12l-3.87-11.8v23.58h7.7L318 104.12"/>
    </g>
    <g>
      <path class="k" d="M370.18 115.86v2.64h-2v-2.92h-1.3v8.3h1.3v-4.43h2.23a.7.7 0 0 0 .72-.7v-2.9z"/>
      <path class="l" d="M363.68 104.12l-3.86 11.78h7.72V92.33l-3.86 11.8"/>
      <path class="m" d="M371.4 104.12l-3.86-11.8v23.58h7.7l-3.85-11.78"/>
    </g>
    <g>
      <path class="k" d="M162.45 66.55v2.64h-2v-2.92h-1.27v8.3h1.3v-4.44h2.23a.7.7 0 0 0 .72-.7v-2.9z"/>
      <path class="l" d="M155.95 54.8l-3.86 11.8h7.7V43l-3.85 11.8"/>
      <path class="m" d="M163.66 54.8l-3.85-11.78V66.6h7.72l-3.86-11.8"/>
    </g>
    <g>
      <path class="k" d="M200.85 109.7v1.66h-1.25v-1.84h-.8v5.2h.8v-2.77h1.4a.45.45 0 0 0 .45-.45v-1.8z"/>
      <path class="l" d="M196.78 102.34l-2.4 7.4h4.82V94.95l-2.42 7.38"/>
      <path class="m" d="M201.6 102.34l-2.4-7.38v14.77h4.83l-2.42-7.4"/>
    </g>
    <g>
      <path class="k" d="M207.66 89.35V91h-1.26V89.2h-.8v5.2h.8V91.6h1.4a.45.45 0 0 0 .45-.44v-1.8z"/>
      <path class="l" d="M203.6 82l-2.43 7.38H206V74.6l-2.4 7.4"/>
      <path class="m" d="M208.42 82L206 74.6V89.4h4.83l-2.4-7.38"/>
    </g>
    <g>
      <path class="k" d="M267.18 119.56v1.66h-1.25v-1.83h-.8v5.2h.8v-2.8h1.4a.45.45 0 0 0 .44-.44v-1.8z"/>
      <path class="l" d="M263.1 112.2l-2.4 7.4h4.83V104.8l-2.42 7.38"/>
      <path class="m" d="M267.94 112.2l-2.4-7.38v14.77h4.82l-2.42-7.4"/>
    </g>
    <g>
      <path class="k" d="M164.06 114.13v3.43h-2.58v-3.8h-1.68v10.76h1.68v-5.74h2.88a.93.93 0 0 0 .93-.92v-3.73z"/>
      <path class="n" d="M155.66 98.95l-5 15.24h10V83.7l-5 15.25"/>
      <path class="d" d="M165.63 98.95l-4.98-15.24v30.5h9.97l-5-15.25"/>
    </g>
    <g>
      <path class="k" d="M182.84 84.73v2.24h-1.66V84.5h-1.1v7h1.1v-3.73h1.9a.6.6 0 0 0 .6-.6v-2.44z"/>
      <path class="n" d="M177.33 74.8l-3.26 9.97h6.53V64.82l-3.27 9.98"/>
      <path class="d" d="M183.86 74.8l-3.26-9.98v19.95h6.53l-3.27-9.97"/>
    </g>
  </g>
  <g>
    <circle class="o" cx="220" cy="76.15" r="8.17"/>
    <path class="g" d="M211.83 75.73h16.35v48.42h-16.35z"/>
    <circle class="o" cx="197.56" cy="91.39" r="9.26"/>
    <path class="g" d="M188.3 90.92h18.53v32.82H188.3z"/>
    <g>
      <path class="p" d="M253.88 139.73l39-10.05v-25.55l-38.95 10.04-.05 25.56"/>
      <path class="q" d="M250.88 106.48l36.3-9.35 5.7 7-38.95 10.04-3.05-7.7"/>
      <path class="r" d="M269.88 92.33l-36.54 9.34 17.54 4.8 36.3-9.34-17.3-4.8"/>
      <path class="s" d="M250.88 106.48l-17.36-4.8h-.1v32.48l20.34 5.57h.12v-21.5l.05-.03v-4.03l-3.05-7.7"/>
      <path class="t" d="M245.68 122.04l-8.3-2.3h-.05v15.54l9.73 2.66h.05v-10.28l.03-.02v-1.93l-1.45-3.66M235.16 108.1v4.06l5.86 1.6h.03v-4.03l-5.9-1.62M243.4 110.5v4.04l5.86 1.6h.03v-4.04l-5.9-1.6M280.44 110.92l-.2 5.08 8.8-2.4.2-5.2-8.8 2.52M257.2 117.22l-.2 5.08 8.8-2.4.2-5.2-8.8 2.52M268.82 114.3l-.2 5.08 8.8-2.4.2-5.2-8.8 2.52"/>
      <path class="u" d="M270.4 94.35l-2.4-.84-.18-9.1h2.58v9.95"/>
      <path class="v" d="M270.4 84.4l1.05-.65v9.58l-1.05 1.02V84.4"/>
      <path class="w" d="M268.87 83.75l-1.05.66h2.58l1.05-.65h-2.58"/>
    </g>
    <g>
      <rect class="w" x="272.92" y="37.42" width="1.77" height="1.77" rx=".88" ry=".88"/>
      <rect class="w" x="275.69" y="34.48" width="1.89" height="1.89" rx=".95" ry=".95"/>
      <rect class="w" x="269.64" y="32.71" width="1.77" height="1.77" rx=".88" ry=".88"/>
      <path class="w" d="M284.66 71.8h-22.48v-3.74a1 1 0 0 0-.1-.38h19.12a1.05 1.05 0 1 0 0-2.1h-12.85v-2h14.43a1 1 0 0 0 0-2h-16.6V59.1h2.88a1 1 0 0 0 0-2h-21v-2.6h15.24a.7.7 0 0 0 0-1.37h-5.05v-2.86H271a.88.88 0 1 0 0-1.75h-4.1a.78.78 0 0 0 .06-.3v-5.43h10.55a.7.7 0 0 0 0-1.4H257.6a.7.7 0 0 0 0 1.4h8v5.42a.65.65 0 0 0 .08.3H250.3a.88.88 0 1 0 0 1.77h6.6v2.83h-18.87a.7.7 0 1 0 0 1.37h8.65v2.6h-6.5a1 1 0 1 0 0 2h24.65v2.5h-.75a1 1 0 0 0 0 2h2.77v2h-20.67a1.05 1.05 0 1 0 0 2.1h14.34a.82.82 0 0 0-.1.38v3.74h-3.6a1 1 0 1 0 0 2h9.36a.53.53 0 0 0 0 .12V77h-17.5a.9.9 0 1 0 0 1.78h20.76v4.65a.66.66 0 0 0 1.3 0v-4.65h1.72a.9.9 0 0 0 0-1.77h-4.87v-3.06-.12h17.08a1 1 0 0 0 0-2z"/>
    </g>
  </g>
</svg>
